<?xml version="1.0" encoding="UTF-8"?>
<svg version="1.1" xmlns="http://www.w3.org/2000/svg" width="500" height="500">
<path d="M0 0 C0.87489578 -0.00807175 1.74979156 -0.01614349 2.65119934 -0.02445984 C4.50271667 -0.03824055 6.35425877 -0.04898937 8.20581055 -0.05688477 C10.05842796 -0.06829785 11.91101537 -0.08857578 13.76342773 -0.1184082 C39.22449941 -0.52704551 62.58171409 5.24904302 85.01074219 17.27978516 C86.69315956 18.16519677 88.40621637 18.9917214 90.12109375 19.8125 C100.22661693 24.79003437 108.36301372 31.90516496 116.83203125 39.23828125 C118.31123047 40.48544922 118.31123047 40.48544922 119.8203125 41.7578125 C125.92233444 47.02472102 130.90627717 52.87403262 135.83203125 59.23828125 C136.90904297 60.55699219 136.90904297 60.55699219 138.0078125 61.90234375 C156.47382571 85.18985597 168.87345412 116.1872965 169.03515625 146.07421875 C169.04085632 146.91183746 169.0465564 147.74945618 169.0524292 148.61245728 C169.06183654 150.38241329 169.06839612 152.15238649 169.07226562 153.92236328 C169.0818777 156.57096918 169.11290241 159.21876628 169.14453125 161.8671875 C169.36023552 196.44253963 156.66770173 229.56331168 134.83203125 256.23828125 C134.373125 256.81078613 133.91421875 257.38329102 133.44140625 257.97314453 C126.07027064 267.144032 118.09252902 274.98171123 108.83203125 282.23828125 C108.26758301 282.68155762 107.70313477 283.12483398 107.12158203 283.58154297 C83.41750891 301.92227025 53.0644971 314.27711433 22.8984375 314.44140625 C22.06223373 314.44710632 21.22602997 314.4528064 20.36448669 314.4586792 C18.60050701 314.46807435 16.83651021 314.47464118 15.07250977 314.47851562 C12.43277497 314.48814179 9.793847 314.51918465 7.15429688 314.55078125 C-27.39879237 314.76688489 -60.51301401 302.05756793 -87.16796875 280.23828125 C-87.74047363 279.779375 -88.31297852 279.32046875 -88.90283203 278.84765625 C-119.05259897 254.61466665 -140.33742885 218.05081264 -144.96400452 179.41519165 C-145.31083126 175.71350959 -145.35085629 172.02053957 -145.37109375 168.3046875 C-145.37679382 167.46848373 -145.3824939 166.63227997 -145.3883667 165.77073669 C-145.39776185 164.00675701 -145.40432868 162.24276021 -145.40820312 160.47875977 C-145.41782929 157.83902497 -145.44887215 155.200097 -145.48046875 152.56054688 C-145.69657239 118.00745763 -132.98725543 84.89323599 -111.16796875 58.23828125 C-110.7090625 57.66577637 -110.25015625 57.09327148 -109.77734375 56.50341797 C-102.40620814 47.3325305 -94.42846652 39.49485127 -85.16796875 32.23828125 C-84.60352051 31.79500488 -84.03907227 31.35172852 -83.45751953 30.89501953 C-60.08860879 12.8136199 -29.75699077 0.26812052 0 0 Z " fill="#AE0706" transform="translate(238.16796875,92.76171875)"/>
<path d="M0 0 C5.33652171 3.81807063 9.97101557 8.22425465 12.5 14.38671875 C12.73587063 17.55786839 12.24848136 20.31156279 11.5 23.38671875 C10.76335906 27.29091572 10.54176361 29.60065535 11.5 33.38671875 C11.71513284 36.57176953 11.68510567 39.7575767 11.6875 42.94921875 C11.69974609 43.81224609 11.71199219 44.67527344 11.72460938 45.56445312 C11.72654297 46.39396484 11.72847656 47.22347656 11.73046875 48.078125 C11.73457764 48.83295166 11.73868652 49.58777832 11.74291992 50.36547852 C11.5 52.38671875 11.5 52.38671875 9.5 55.38671875 C9.81639561 60.00996889 11.33563402 63.5460456 13.4375 67.63671875 C13.96214844 68.673125 14.48679687 69.70953125 15.02734375 70.77734375 C16.37858246 73.44414248 16.37858246 73.44414248 18.5 75.38671875 C18.875 77.82421875 18.875 77.82421875 18.5 80.38671875 C16.9375 82.19921875 16.9375 82.19921875 14.5 83.38671875 C10.75 83.57421875 10.75 83.57421875 7.5 83.38671875 C7.83 86.35671875 8.16 89.32671875 8.5 92.38671875 C7.51 93.04671875 6.52 93.70671875 5.5 94.38671875 C4.2811879 97.94344054 4.2811879 97.94344054 3.5 101.38671875 C2.84 101.38671875 2.18 101.38671875 1.5 101.38671875 C1.52320313 102.0621875 1.54640625 102.73765625 1.5703125 103.43359375 C1.58835937 104.325625 1.60640625 105.21765625 1.625 106.13671875 C1.64820313 107.0184375 1.67140625 107.90015625 1.6953125 108.80859375 C1.48870725 111.53578301 0.97305841 113.09987283 -0.5 115.38671875 C-5.23994885 117.75669318 -10.20839059 116.27778007 -15.0625 114.94921875 C-21.831167 113.13051482 -28.51880084 112.68620806 -35.5 112.38671875 C-35.45901508 114.80927869 -35.45901508 114.80927869 -34.5 117.38671875 C-31.92475824 119.06599594 -31.92475824 119.06599594 -28.63671875 120.2109375 C-27.43982422 120.68208984 -26.24292969 121.15324219 -25.00976562 121.63867188 C-23.73591408 122.11781804 -22.46182284 122.59632744 -21.1875 123.07421875 C-19.92440769 123.56258854 -18.66202713 124.05280344 -17.40039062 124.54492188 C-15.07625344 125.44937676 -12.74866892 126.345055 -10.41674805 127.22924805 C-7.5 128.38671875 -7.5 128.38671875 -5.25708008 129.50976562 C-3.01877781 130.62689523 -0.97490714 130.86407508 1.5 131.19921875 C10.72989414 132.77655713 20.06979132 136.58504896 27.5 142.38671875 C27.83 143.04671875 28.16 143.70671875 28.5 144.38671875 C27.35144531 144.3403125 26.20289063 144.29390625 25.01953125 144.24609375 C7.82245423 143.75931391 -5.72251523 147.76165264 -18.640625 159.54296875 C-21.12532468 162.0067886 -23.39067985 164.62622506 -25.671875 167.27734375 C-33.18579566 175.9472522 -40.74420819 183.67661011 -52.70703125 184.9609375 C-68.62912733 185.91761509 -81.07516492 179.51785053 -94.47265625 171.69921875 C-108.24289745 163.69772863 -121.57155822 157.21187794 -137.75 157.19921875 C-138.55824219 157.18697266 -139.36648437 157.17472656 -140.19921875 157.16210938 C-148.39207522 157.14244652 -155.24492256 158.49375037 -162.5 162.38671875 C-163.16 162.38671875 -163.82 162.38671875 -164.5 162.38671875 C-163.6545429 153.9321478 -159.85498127 147.97871589 -153.78125 142.2109375 C-148.4143516 137.91925676 -140.47639362 133.52121587 -133.4765625 133.33203125 C-125.05345315 133.08017748 -118.64353864 129.3005572 -111.3828125 125.39257812 C-108.78183135 124.00304982 -106.14337928 122.69338919 -103.5 121.38671875 C-102.71625 120.99484375 -101.9325 120.60296875 -101.125 120.19921875 C-100.320625 119.79703125 -100.320625 119.79703125 -99.5 119.38671875 C-100.49 119.71671875 -101.48 120.04671875 -102.5 120.38671875 C-112.72607077 121.36598141 -112.72607077 121.36598141 -117.125 118.63671875 C-119.5 116.38671875 -119.5 116.38671875 -120.5625 114.32421875 C-120.541875 113.68484375 -120.52125 113.04546875 -120.5 112.38671875 C-120.025625 111.95359375 -119.55125 111.52046875 -119.0625 111.07421875 C-117.17509857 109.38493625 -117.17509857 109.38493625 -117.25 106.2578125 C-117.51765985 102.11326698 -118.5142322 98.61983311 -119.9375 94.76171875 C-125.00909101 80.61240602 -124.52855989 68.14081932 -118.5 54.38671875 C-116.15045297 50.12523433 -113.41876672 46.27500589 -110.5 42.38671875 C-108.84273906 40.14494107 -107.19918703 37.89355426 -105.5625 35.63671875 C-104.92997314 34.7696228 -104.92997314 34.7696228 -104.28466797 33.88500977 C-101.14301517 29.49690773 -98.50047865 24.94395754 -95.9375 20.19921875 C-92.16554403 13.25254009 -87.82382183 7.26162011 -82.5 1.38671875 C-81.91605469 0.70996094 -81.33210938 0.03320312 -80.73046875 -0.6640625 C-59.52202533 -23.85924535 -23.1229488 -14.9215279 0 0 Z " fill="#FEFCFC" transform="translate(317.5,164.61328125)"/>
<path d="M0 0 C8.2063236 -0.32776736 15.31999422 0.07261244 23.22265625 2.33203125 C27.24544318 3.29953697 30.88161625 3.20591919 35 3 C33 5 31 7 29 9 C28.29289322 10.64991582 27.62056011 12.31562256 27 14 C31.19813294 15.72423317 34.84270391 17.1098573 39.375 17.5 C40.57125 17.665 41.7675 17.83 43 18 C43.66 18.99 44.32 19.98 45 21 C32.8487785 20.4868966 22.55650714 15.23880435 11.68945312 10.23535156 C7.80939309 8.45311629 3.90577186 6.72498863 0 5 C0 3.35 0 1.7 0 0 Z " fill="#AA0D0C" transform="translate(282,277)"/>
<path d="M0 0 C1.32 0.33 2.64 0.66 4 1 C3.67 1.99 3.34 2.98 3 4 C6.53209334 7.86655104 6.53209334 7.86655104 11.390625 9.1328125 C16.36711106 9.11921554 21.11033867 9.05722407 26 8 C22.34193269 11.11223004 18.24429815 12.81550196 13.875 14.6875 C13.14667969 15.00783203 12.41835937 15.32816406 11.66796875 15.65820312 C6.26535848 18 6.26535848 18 4 18 C3.67 17.01 3.34 16.02 3 15 C2.34 14.34 1.68 13.68 1 13 C2.32 12.67 3.64 12.34 5 12 C4.360625 10.948125 3.72125 9.89625 3.0625 8.8125 C1.38245548 5.89171588 0.41003948 3.3828257 0 0 Z " fill="#A60E0E" transform="translate(195,275)"/>
<path d="M0 0 C6.96327638 -0.33693273 12.43345544 0.6969113 19 3 C18.67 3.99 18.34 4.98 18 6 C17.34 6 16.68 6 16 6 C16 6.99 16 7.98 16 9 C14.53984709 8.71758359 13.08190207 8.42373386 11.625 8.125 C10.81289063 7.96257812 10.00078125 7.80015625 9.1640625 7.6328125 C7 7 7 7 5 5 C2.42938689 4.35232207 2.42938689 4.35232207 0 4 C0 2.68 0 1.36 0 0 Z " fill="#AE0705" transform="translate(286,278)"/>
<path d="M0 0 C8.2063236 -0.32776736 15.31999422 0.07261244 23.22265625 2.33203125 C27.24544318 3.29953697 30.88161625 3.20591919 35 3 C34.67 3.66 34.34 4.32 34 5 C28.54230189 5.11138159 23.38490641 4.91657981 18 4 C18 3.34 18 2.68 18 2 C11.07 1.505 11.07 1.505 4 1 C4.33 2.32 4.66 3.64 5 5 C6.65 5 8.3 5 10 5 C10.33 5.99 10.66 6.98 11 8 C12.98 8 14.96 8 17 8 C17.33 8.66 17.66 9.32 18 10 C13.94507418 11.66201898 11.22066185 10.20927166 7.3125 8.625 C6.15363281 8.16351563 4.99476563 7.70203125 3.80078125 7.2265625 C1 6 1 6 0 5 C-0.04063832 3.33382885 -0.042721 1.66611905 0 0 Z " fill="#9B191B" transform="translate(282,277)"/>
<path d="M0 0 C1.03640625 0.42152344 2.0728125 0.84304688 3.140625 1.27734375 C4.51036091 1.83086716 5.88015568 2.38424494 7.25 2.9375 C8.27287109 3.35418945 8.27287109 3.35418945 9.31640625 3.77929688 C14.04748158 5.68550684 18.04864664 7.12460437 23.15234375 7.1328125 C23.92900391 7.13410156 24.70566406 7.13539063 25.50585938 7.13671875 C26.30830078 7.13285156 27.11074219 7.12898438 27.9375 7.125 C29.13536133 7.13080078 29.13536133 7.13080078 30.35742188 7.13671875 C34.36995566 7.13006998 38.08442668 6.99669139 42 6 C40.59375 7.98046875 40.59375 7.98046875 38 10 C34.82488079 10.53701324 31.71030012 10.42144684 28.5 10.3125 C27.64535156 10.30283203 26.79070312 10.29316406 25.91015625 10.28320312 C22.0856604 10.21458892 18.70544937 9.97184898 15 9 C14.34 9 13.68 9 13 9 C12.67 9.66 12.34 10.32 12 11 C12 10.34 12 9.68 12 9 C11.34 9 10.68 9 10 9 C10 8.01 10 7.02 10 6 C9.36191406 5.81824219 8.72382813 5.63648438 8.06640625 5.44921875 C7.24011719 5.19785156 6.41382813 4.94648438 5.5625 4.6875 C4.73878906 4.44386719 3.91507813 4.20023437 3.06640625 3.94921875 C2.04353516 3.47935547 2.04353516 3.47935547 1 3 C0.67 2.01 0.34 1.02 0 0 Z " fill="#A52726" transform="translate(232,341)"/>
<path d="M0 0 C4.73045822 4.24528302 4.73045822 4.24528302 5.9375 7.625 C6 10 6 10 4 13 C4.515625 13.928125 5.03125 14.85625 5.5625 15.8125 C7 19 7 19 6 22 C-2.56849108 9.26579982 -2.56849108 9.26579982 -1.6328125 3.890625 C-1 2 -1 2 0 0 Z " fill="#A31312" transform="translate(328,217)"/>
<path d="M0 0 C0.33 0.66 0.66 1.32 1 2 C0.328125 3.875 0.328125 3.875 -0.75 6 C-1.26820312 7.051875 -1.26820312 7.051875 -1.796875 8.125 C-3 10 -3 10 -6 12 C-6.79437923 14.18505129 -6.79437923 14.18505129 -7.1875 16.625 C-7.34605469 17.44226563 -7.50460938 18.25953125 -7.66796875 19.1015625 C-7.77753906 19.72804687 -7.88710937 20.35453125 -8 21 C-8.66 21 -9.32 21 -10 21 C-10 20.34 -10 19.68 -10 19 C-10.66 18.67 -11.32 18.34 -12 18 C-4.88610478 5.33029613 -4.88610478 5.33029613 0 0 Z " fill="#9D1213" transform="translate(124,155)"/>
<path d="M0 0 C0 3 0 3 -1 6 C5.33773468 7.53332291 11.50149789 8.48446121 18 9 C13.53261593 11.97825605 9.23811417 11.61273233 4 11 C0.70807498 9.7647322 -1.41759272 8.13055531 -3.0625 4.9375 C-3 3 -3 3 -1.5625 1.25 C-1.046875 0.8375 -0.53125 0.425 0 0 Z " fill="#F8D3CE" transform="translate(200,274)"/>
<path d="M0 0 C2.78637633 4.1795645 1.79562512 6.14668677 1 11 C0.67 10.34 0.34 9.68 0 9 C-1.32 9.33 -2.64 9.66 -4 10 C-3.85691406 10.90492188 -3.85691406 10.90492188 -3.7109375 11.828125 C-3.60007812 12.62734375 -3.48921875 13.4265625 -3.375 14.25 C-3.25898438 15.03890625 -3.14296875 15.8278125 -3.0234375 16.640625 C-2.99680605 19.32152459 -3.63407916 20.72694089 -5 23 C-5.66 22.67 -6.32 22.34 -7 22 C-6.71926927 19.85270859 -6.42511501 17.70716807 -6.125 15.5625 C-5.88136719 13.77005859 -5.88136719 13.77005859 -5.6328125 11.94140625 C-5.42398437 10.97074219 -5.21515625 10.00007813 -5 9 C-4.34 8.67 -3.68 8.34 -3 8 C-2.29508733 5.67793475 -1.62787571 3.34406932 -1 1 C-0.67 0.67 -0.34 0.34 0 0 Z " fill="#A1181C" transform="translate(324,257)"/>
<path d="M0 0 C0.33 0 0.66 0 1 0 C1.09360107 4.49285121 1.09169859 8.85891729 0.4375 13.3125 C0.03914627 16.67005283 0.20812938 17.91285759 1 21 C1.02172852 23.01464844 1.02172852 23.01464844 0.87890625 25.109375 C0.83056641 25.86347656 0.78222656 26.61757812 0.73242188 27.39453125 C0.64831055 28.56048828 0.64831055 28.56048828 0.5625 29.75 C0.51029297 30.54277344 0.45808594 31.33554688 0.40429688 32.15234375 C0.27510676 34.10193997 0.13830035 36.05102886 0 38 C-0.33 38 -0.66 38 -1 38 C-1.06058594 36.72125 -1.12117188 35.4425 -1.18359375 34.125 C-1.26807216 32.4166589 -1.35271641 30.70832599 -1.4375 29 C-1.47681641 28.16082031 -1.51613281 27.32164062 -1.55664062 26.45703125 C-1.75841203 22.45264494 -2.03238969 18.51092271 -2.58984375 14.5390625 C-3.02730042 10.76443641 -2.58691441 9.35015264 -1 6 C-0.62406934 4.0075675 -0.28020455 2.0081326 0 0 Z " fill="#971110" transform="translate(330,179)"/>
<path d="M0 0 C1.93681161 -0.08107583 3.8745934 -0.13922475 5.8125 -0.1875 C6.89144531 -0.22230469 7.97039062 -0.25710937 9.08203125 -0.29296875 C12 0 12 0 13.88671875 1.51171875 C14.25410156 2.00285156 14.62148438 2.49398437 15 3 C14.67 3.66 14.34 4.32 14 5 C15.11375 5.226875 16.2275 5.45375 17.375 5.6875 C21 7 21 7 22.2265625 9.58203125 C22.48179687 10.37996094 22.73703125 11.17789063 23 12 C22.26136719 11.54109375 21.52273438 11.0821875 20.76171875 10.609375 C14.03453858 6.54058496 7.4954982 3.37554175 0 1 C0 0.67 0 0.34 0 0 Z " fill="#A42527" transform="translate(297,155)"/>
<path d="M0 0 C5.67912356 0.23180096 8.45613773 1.7044897 12.71484375 5.4296875 C14 7 14 7 14 10 C7.73 9.67 1.46 9.34 -5 9 C-5 8.67 -5 8.34 -5 8 C0.61 8 6.22 8 12 8 C10.14375 6.8553125 10.14375 6.8553125 8.25 5.6875 C5.39697728 3.90689008 2.63992133 2.08993772 0 0 Z " fill="#AB2F32" transform="translate(333,300)"/>
<path d="M0 0 C1.65 0 3.3 0 5 0 C5 0.66 5 1.32 5 2 C5.66 2 6.32 2 7 2 C7.33 2.66 7.66 3.32 8 4 C9.99032585 4.94233505 12.01787029 5.80714812 14.0625 6.625 C15.71958984 7.29402344 15.71958984 7.29402344 17.41015625 7.9765625 C18.26480469 8.31429688 19.11945313 8.65203125 20 9 C20 9.99 20 10.98 20 12 C16.33389646 10.60275546 12.8938372 8.98055794 9.4375 7.125 C8.04337891 6.38636719 8.04337891 6.38636719 6.62109375 5.6328125 C4.005985 4.00372836 2.07913413 2.2601411 0 0 Z " fill="#970F15" transform="translate(160,379)"/>
<path d="M0 0 C-2.78871177 1.33957921 -5.58143062 2.67058435 -8.375 4 C-9.1690625 4.3815625 -9.963125 4.763125 -10.78125 5.15625 C-11.54179687 5.5171875 -12.30234375 5.878125 -13.0859375 6.25 C-13.7876709 6.58515625 -14.4894043 6.9203125 -15.21240234 7.265625 C-17 8 -17 8 -19 8 C-19 7.01 -19 6.02 -19 5 C-17.35 5 -15.7 5 -14 5 C-14.33 3.68 -14.66 2.36 -15 1 C-13.0641649 0.63684334 -11.12624752 0.28477269 -9.1875 -0.0625 C-8.10855469 -0.25972656 -7.02960938 -0.45695312 -5.91796875 -0.66015625 C-3 -1 -3 -1 0 0 Z " fill="#992728" transform="translate(221,284)"/>
<path d="M0 0 C0 0.66 0 1.32 0 2 C0.165 2.639375 0.33 3.27875 0.5 3.9375 C1 6 1 6 1 9 C1.63106429 11.01151741 2.29373761 13.01363702 3 15 C-0.29525123 12.04272325 -2.01116032 9.30729258 -3.75 5.25 C-4.17796875 4.26515625 -4.6059375 3.2803125 -5.046875 2.265625 C-5.36140625 1.51796875 -5.6759375 0.7703125 -6 0 C-3 -1 -3 -1 0 0 Z " fill="#9F1011" transform="translate(116,322)"/>
<path d="M0 0 C1.65 0 3.3 0 5 0 C3.92044741 1.73152958 2.83617488 3.46011684 1.75 5.1875 C1.14671875 6.15042969 0.5434375 7.11335937 -0.078125 8.10546875 C-1.91637545 10.87405327 -3.88425949 13.43957951 -6 16 C-5.67 14.02 -5.34 12.04 -5 10 C-4.34 10 -3.68 10 -3 10 C-2.87625 8.700625 -2.7525 7.40125 -2.625 6.0625 C-2.4140625 3.84765625 -2.4140625 3.84765625 -2 2 C-1.34 1.67 -0.68 1.34 0 1 C0 0.67 0 0.34 0 0 Z " fill="#A01614" transform="translate(206,202)"/>
<path d="M0 0 C0.66 0.66 1.32 1.32 2 2 C1.71957256 3.34545507 1.37390854 4.67747163 1 6 C0.69283718 12.40524817 0.8525486 18.68901728 2 25 C1.34 25.33 0.68 25.66 0 26 C-1.21033415 23.57933169 -1.12922803 22.01833058 -1.1328125 19.31640625 C-1.13410156 18.38892578 -1.13539063 17.46144531 -1.13671875 16.50585938 C-1.13285156 15.53455078 -1.12898437 14.56324219 -1.125 13.5625 C-1.12886719 12.59505859 -1.13273438 11.62761719 -1.13671875 10.63085938 C-1.13542969 9.70208984 -1.13414062 8.77332031 -1.1328125 7.81640625 C-1.13168457 6.96506104 -1.13055664 6.11371582 -1.12939453 5.23657227 C-1 3 -1 3 0 0 Z " fill="#9F1C1C" transform="translate(194,229)"/>
<path d="M0 0 C4.62765345 0.46276534 7.86369508 0.93184754 12 3 C13.37177871 3.17353827 14.74758861 3.31654452 16.125 3.4375 C17.40375 3.623125 18.6825 3.80875 20 4 C20.99 5.485 20.99 5.485 22 7 C14.041654 6.0651711 7.1123461 4.78589999 0 1 C0 0.67 0 0.34 0 0 Z " fill="#A22629" transform="translate(305,291)"/>
<path d="M0 0 C0.66 0 1.32 0 2 0 C0.58832253 5.26170694 -1.74850232 8.72171358 -5 13 C-5.66 12.01 -6.32 11.02 -7 10 C-6.375 7.4375 -6.375 7.4375 -5 5 C-2.9375 3.875 -2.9375 3.875 -1 3 C-0.67 2.01 -0.34 1.02 0 0 Z " fill="#921012" transform="translate(385,327)"/>
<path d="M0 0 C6.37675351 6.20440882 6.37675351 6.20440882 8 9 C7.6875 11.25 7.6875 11.25 7 13 C6.34 13 5.68 13 5 13 C4.67 12.01 4.34 11.02 4 10 C3.34 9.67 2.68 9.34 2 9 C2.33 7.35 2.66 5.7 3 4 C2.01 3.67 1.02 3.34 0 3 C0 2.01 0 1.02 0 0 Z " fill="#9F0E13" transform="translate(375,155)"/>
<path d="M0 0 C0.33 0.66 0.66 1.32 1 2 C0.01 2.66 -0.98 3.32 -2 4 C-1.34 4.33 -0.68 4.66 0 5 C-1 7 -1 7 -3.3125 7.875 C-6.28908843 9.12101376 -7.86007284 10.62230316 -10 13 C-10.66 12.67 -11.32 12.34 -12 12 C-10.37860535 10.18415766 -8.75313264 8.3722838 -7.125 6.5625 C-6.66480469 6.04623047 -6.20460937 5.52996094 -5.73046875 4.99804688 C-2.2265625 1.11328125 -2.2265625 1.11328125 0 0 Z " fill="#9B1115" transform="translate(143,134)"/>
<path d="M0 0 C1 2 1 2 0.56274414 3.78759766 C0.30614014 4.48933105 0.04953613 5.19106445 -0.21484375 5.9140625 C-0.48876953 6.67460937 -0.76269531 7.43515625 -1.04492188 8.21875 C-1.33947266 9.0128125 -1.63402344 9.806875 -1.9375 10.625 C-2.22818359 11.42679687 -2.51886719 12.22859375 -2.81835938 13.0546875 C-3.53882525 15.03892138 -4.26855138 17.01978837 -5 19 C-5.75929472 16.01386614 -6.4118332 13.02485781 -7 10 C-6.01 10.33 -5.02 10.66 -4 11 C-4 10.01 -4 9.02 -4 8 C-3.34 8 -2.68 8 -2 8 C-1.855625 6.865625 -1.71125 5.73125 -1.5625 4.5625 C-1 1 -1 1 0 0 Z " fill="#980F10" transform="translate(401,292)"/>
<path d="M0 0 C0.66 0.33 1.32 0.66 2 1 C2 2.32 2 3.64 2 5 C0.88625 4.938125 -0.2275 4.87625 -1.375 4.8125 C-3.169375 4.9053125 -3.169375 4.9053125 -5 5 C-5.99 6.485 -5.99 6.485 -7 8 C-8.32 7.67 -9.64 7.34 -11 7 C-9.54261898 6.01941648 -8.08406325 5.04057868 -6.625 4.0625 C-5.81289063 3.51722656 -5.00078125 2.97195313 -4.1640625 2.41015625 C-2 1 -2 1 0 0 Z " fill="#A21819" transform="translate(315,312)"/>
<path d="M0 0 C-1.86192283 1.99267584 -3.38992958 2.92846769 -6.11132812 3.24755859 C-8.66311554 3.29513603 -11.19884745 3.26098224 -13.75 3.1875 C-14.63816406 3.17396484 -15.52632813 3.16042969 -16.44140625 3.14648438 C-18.62822578 3.11121309 -20.81379966 3.06192752 -23 3 C-23 2.67 -23 2.34 -23 2 C-21.60587891 1.92652344 -21.60587891 1.92652344 -20.18359375 1.8515625 C-15.31775208 1.55727802 -4.03004662 -2.01502331 0 0 Z " fill="#9C1517" transform="translate(274,348)"/>
<path d="M0 0 C0.33 0.99 0.66 1.98 1 3 C2.175625 2.505 3.35125 2.01 4.5625 1.5 C8.59220111 -0.02999347 11.72138314 -0.26741355 16 0 C16 0.33 16 0.66 16 1 C15.41992188 1.10957031 14.83984375 1.21914063 14.2421875 1.33203125 C9.38082776 2.31874288 5.40496877 3.63635822 1 6 C0.34 6 -0.32 6 -1 6 C-0.67 4.02 -0.34 2.04 0 0 Z " fill="#F9D4CE" transform="translate(154,321)"/>
<path d="M0 0 C0.66 0.33 1.32 0.66 2 1 C1.34 1.66 0.68 2.32 0 3 C-0.2475 3.61875 -0.495 4.2375 -0.75 4.875 C-2.52955489 7.90024331 -5.04507872 9.20135226 -8 11 C-8.66 10.67 -9.32 10.34 -10 10 C-6.7 6.7 -3.4 3.4 0 0 Z " fill="#FBDDDB" transform="translate(242,159)"/>
<path d="M0 0 C0.66 0.33 1.32 0.66 2 1 C0.88407791 3.00507927 -0.24298712 5.00396096 -1.375 7 C-2.31472656 8.670625 -2.31472656 8.670625 -3.2734375 10.375 C-3.84320313 11.24125 -4.41296875 12.1075 -5 13 C-5.66 13 -6.32 13 -7 13 C-6.34 10.69 -5.68 8.38 -5 6 C-4.34 6 -3.68 6 -3 6 C-3 5.01 -3 4.02 -3 3 C-2.34 3 -1.68 3 -1 3 C-0.67 2.01 -0.34 1.02 0 0 Z " fill="#A22123" transform="translate(224,178)"/>
<path d="M0 0 C-1.78881736 1.00508801 -3.58114696 2.00392736 -5.375 3 C-6.37273437 3.556875 -7.37046875 4.11375 -8.3984375 4.6875 C-11 6 -11 6 -13 6 C-12.34 4.35 -11.68 2.7 -11 1 C-10.01 1 -9.02 1 -8 1 C-7.175 0.649375 -6.35 0.29875 -5.5 -0.0625 C-3 -1 -3 -1 0 0 Z " fill="#961011" transform="translate(333,385)"/>
<path d="M0 0 C0.66 0.33 1.32 0.66 2 1 C2 1.66 2 2.32 2 3 C3.98 3 5.96 3 8 3 C8.33 3.66 8.66 4.32 9 5 C5.69564916 6.12377697 3.9493138 5.89554742 0.75 4.5625 C0.04359375 4.27503906 -0.6628125 3.98757813 -1.390625 3.69140625 C-1.92171875 3.46324219 -2.4528125 3.23507812 -3 3 C-3 2.34 -3 1.68 -3 1 C-2.01 0.67 -1.02 0.34 0 0 Z " fill="#A41F1C" transform="translate(291,282)"/>
<path d="M0 0 C1.93681161 -0.08107583 3.8745934 -0.13922475 5.8125 -0.1875 C6.89144531 -0.22230469 7.97039062 -0.25710937 9.08203125 -0.29296875 C12 0 12 0 13.88671875 1.51171875 C14.25410156 2.00285156 14.62148438 2.49398437 15 3 C11.28233332 4.23922223 9.56110463 3.57018942 5.8125 2.5625 C4.72582031 2.27503906 3.63914062 1.98757812 2.51953125 1.69140625 C1.68808594 1.46324219 0.85664063 1.23507813 0 1 C0 0.67 0 0.34 0 0 Z " fill="#AC1A1D" transform="translate(297,155)"/>
<path d="M0 0 C1.66666667 1.66666667 3.33333333 3.33333333 5 5 C5.8971875 5.8353125 5.8971875 5.8353125 6.8125 6.6875 C8 8 8 8 8 10 C6.35 9.67 4.7 9.34 3 9 C2.01 6.03 1.02 3.06 0 0 Z " fill="#9B1011" transform="translate(363,140)"/>
<path d="M0 0 C0.66 0.99 1.32 1.98 2 3 C-0.64 5.31 -3.28 7.62 -6 10 C-6.33 8.68 -6.66 7.36 -7 6 C-3.375 3 -3.375 3 0 3 C0 2.01 0 1.02 0 0 Z " fill="#970E0F" transform="translate(361,358)"/>
<path d="M0 0 C0.66 0 1.32 0 2 0 C2.20496094 0.62648438 2.40992188 1.25296875 2.62109375 1.8984375 C2.89050781 2.71570313 3.15992188 3.53296875 3.4375 4.375 C3.70433594 5.18710937 3.97117188 5.99921875 4.24609375 6.8359375 C4.95179729 9.01031799 4.95179729 9.01031799 6 11 C5.71887936 13.00800456 5.38932033 15.01014051 5 17 C4.67 17 4.34 17 4 17 C3.81824219 16.11248047 3.81824219 16.11248047 3.6328125 15.20703125 C2.72744944 10.93789621 1.66507747 7.04375957 0 3 C0 2.01 0 1.02 0 0 Z " fill="#FDE2DE" transform="translate(197,256)"/>
<path d="M0 0 C1.83979073 2.7596861 2.48323221 4.29741882 3.1875 7.4375 C3.45626953 8.58025391 3.45626953 8.58025391 3.73046875 9.74609375 C4.0154963 12.12958496 3.72875415 13.73104204 3 16 C0.65229357 12.47844036 0.62330386 10.49228157 0.375 6.3125 C0.30023438 5.13300781 0.22546875 3.95351562 0.1484375 2.73828125 C0.09945313 1.83464844 0.05046875 0.93101562 0 0 Z " fill="#9B151C" transform="translate(401,206)"/>
<path d="M0 0 C0.33 0 0.66 0 1 0 C1.21755666 5.4389165 1.10428384 9.87080814 -1 15 C-1.66 15 -2.32 15 -3 15 C-2.22225866 9.94468132 -1.14051606 4.98283716 0 0 Z " fill="#A22528" transform="translate(330,179)"/>
<path d="M0 0 C1.96035175 0.44962196 3.91824309 0.90998248 5.875 1.375 C7.51082031 1.75785156 7.51082031 1.75785156 9.1796875 2.1484375 C12 3 12 3 14 5 C12.68 5.33 11.36 5.66 10 6 C10 5.34 10 4.68 10 4 C8.35 4 6.7 4 5 4 C5 3.34 5 2.68 5 2 C3.35 2 1.7 2 0 2 C0 1.34 0 0.68 0 0 Z " fill="#951518" transform="translate(289,97)"/>
<path d="M0 0 C0 0.66 0 1.32 0 2 C-0.99 2 -1.98 2 -3 2 C-3.33 2.99 -3.66 3.98 -4 5 C-6.31 5.33 -8.62 5.66 -11 6 C-8.24029211 2.78034079 -4.3526723 0 0 0 Z " fill="#991617" transform="translate(177,111)"/>
<path d="M0 0 C0.309375 0.639375 0.61875 1.27875 0.9375 1.9375 C1.8345163 3.93610821 1.8345163 3.93610821 3 5 C3.07205511 6.68608966 3.08386068 8.37500659 3.0625 10.0625 C3.05347656 10.98160156 3.04445313 11.90070313 3.03515625 12.84765625 C3.02355469 13.55792969 3.01195313 14.26820313 3 15 C1.08697693 11.73386305 0.64325339 9.00554752 0.375 5.25 C0.30023438 4.26515625 0.22546875 3.2803125 0.1484375 2.265625 C0.09945312 1.51796875 0.05046875 0.7703125 0 0 Z " fill="#93100F" transform="translate(94,272)"/>
<path d="M0 0 C3.3 1.65 6.6 3.3 10 5 C10 5.33 10 5.66 10 6 C6.47730515 6.4025937 5.20059192 6.13372795 2.1875 4.125 C1.465625 3.42375 0.74375 2.7225 0 2 C0 1.34 0 0.68 0 0 Z " fill="#A42225" transform="translate(209,328)"/>
<path d="M0 0 C1.65 0 3.3 0 5 0 C4.01 3.3 3.02 6.6 2 10 C1.67 10 1.34 10 1 10 C0.67 6.7 0.34 3.4 0 0 Z " fill="#A11615" transform="translate(195,218)"/>
<path d="M0 0 C0.99 0 1.98 0 3 0 C1.47291037 3.43595166 -0.59927045 6.11912454 -3 9 C-3.33 7.35 -3.66 5.7 -4 4 C-3.01 4.33 -2.02 4.66 -1 5 C-0.67 3.35 -0.34 1.7 0 0 Z " fill="#A4181A" transform="translate(214,193)"/>
<path d="M0 0 C3.96 1.98 3.96 1.98 8 4 C7.01 4.33 6.02 4.66 5 5 C4.67 5.66 4.34 6.32 4 7 C3.01 6.34 2.02 5.68 1 5 C1.33 4.34 1.66 3.68 2 3 C1.34 2.67 0.68 2.34 0 2 C0 1.34 0 0.68 0 0 Z " fill="#A51718" transform="translate(223,336)"/>
<path d="M0 0 C5.94 2.475 5.94 2.475 12 5 C7.6371591 6.09071022 6.88012354 5.73584474 3 4 C2.34 4 1.68 4 1 4 C0.67 2.68 0.34 1.36 0 0 Z " fill="#FCE2DD" transform="translate(300,289)"/>
<path d="M0 0 C2.97246802 2.54782974 4.41535288 5.45340883 6 9 C6 9.66 6 10.32 6 11 C5.01 10.67 4.02 10.34 3 10 C2.67 8.02 2.34 6.04 2 4 C1.34 4 0.68 4 0 4 C0 2.68 0 1.36 0 0 Z " fill="#981318" transform="translate(383,166)"/>
<path d="M0 0 C1.98 0 3.96 0 6 0 C7.125 3.75 7.125 3.75 6 6 C3.97945196 4.35830472 1.97956942 2.69088222 0 1 C0 0.67 0 0.34 0 0 Z " fill="#9A0F0F" transform="translate(141,364)"/>
<path d="M0 0 C0.33 0.99 0.66 1.98 1 3 C-0.125 4.5 -0.125 4.5 -2 6 C-5.1875 6.1875 -5.1875 6.1875 -8 6 C-5.38485683 3.87961365 -2.80362384 1.86908256 0 0 Z " fill="#A31B19" transform="translate(282,341)"/>
<path d="M0 0 C1 2 1 2 0.4375 4.0625 C-1 6 -1 6 -4.125 6.75 C-5.548125 6.87375 -5.548125 6.87375 -7 7 C-4.66666667 4.66666667 -2.33333333 2.33333333 0 0 Z " fill="#A52624" transform="translate(303,320)"/>
<path d="M0 0 C0.99 0.33 1.98 0.66 3 1 C3 1.66 3 2.32 3 3 C3.66 3 4.32 3 5 3 C4.67 4.98 4.34 6.96 4 9 C1.49701566 6.06171403 0.53069061 3.82097239 0 0 Z " fill="#9C1111" transform="translate(106,313)"/>
<path d="M0 0 C-2.36292656 2.52588702 -3.66462511 3.88820837 -7 5 C-7 3.68 -7 2.36 -7 1 C-4.53721199 -0.231394 -2.7204945 -0.07159196 0 0 Z " fill="#950E0E" transform="translate(340,379)"/>
<path d="M0 0 C1.65 0.33 3.3 0.66 5 1 C3.37660195 2.70884005 1.70680947 4.37446717 0 6 C-0.66 6 -1.32 6 -2 6 C-2.33 5.01 -2.66 4.02 -3 3 C-2.34 3 -1.68 3 -1 3 C-0.67 2.01 -0.34 1.02 0 0 Z " fill="#990E10" transform="translate(347,369)"/>
<path d="M0 0 C0.99 0.33 1.98 0.66 3 1 C1.515 4.465 1.515 4.465 0 8 C-0.66 7.01 -1.32 6.02 -2 5 C-1.125 2.3125 -1.125 2.3125 0 0 Z " fill="#A30D0E" transform="translate(380,332)"/>
<path d="M0 0 C6.52307692 0.61538462 6.52307692 0.61538462 8.9375 2.5625 C9.288125 3.036875 9.63875 3.51125 10 4 C9.01 4.495 9.01 4.495 8 5 C6.0546875 4.22265625 6.0546875 4.22265625 3.875 3.0625 C3.15054687 2.68222656 2.42609375 2.30195313 1.6796875 1.91015625 C1.12539063 1.60980469 0.57109375 1.30945313 0 1 C0 0.67 0 0.34 0 0 Z " fill="#A22A2C" transform="translate(333,300)"/>
<path d="M0 0 C5.875 3.75 5.875 3.75 7 6 C5.35 6 3.7 6 2 6 C1.34 4.02 0.68 2.04 0 0 Z " fill="#981313" transform="translate(348,127)"/>
<path d="M0 0 C0.99 0.33 1.98 0.66 3 1 C3.33 3.97 3.66 6.94 4 10 C1.7448078 7.7448078 1.02276532 5.9952413 0 3 C0 2.01 0 1.02 0 0 Z " fill="#98100E" transform="translate(102,303)"/>
<path d="M0 0 C1 3 1 3 0.3125 5.125 C-1 7 -1 7 -5 8 C-3.35 5.36 -1.7 2.72 0 0 Z " fill="#F6D9D8" transform="translate(217,193)"/>
<path d="M0 0 C0.66 0.33 1.32 0.66 2 1 C-0.52788007 3.79872437 -2.20411134 5.45773019 -6 6 C-4 4 -2 2 0 0 Z " fill="#9A1113" transform="translate(161,119)"/>
</svg>
