<?xml version="1.0" encoding="UTF-8"?>
<svg version="1.1" xmlns="http://www.w3.org/2000/svg" width="2048" height="256">
<path d="M0 0 C0.50660156 1.42892578 0.50660156 1.42892578 1.0234375 2.88671875 C1.47390696 4.1536641 1.92443067 5.42059016 2.375 6.6875 C2.81585937 7.92886719 3.25671875 9.17023438 3.7109375 10.44921875 C4.48303762 12.57600364 5.28768688 14.69200357 6.15625 16.78125 C7.11963482 19.31459526 7.15359627 21.31206522 7 24 C0.33643582 27.49043838 -6.59650491 28.12718851 -14 29 C-13.13375 29.61875 -12.2675 30.2375 -11.375 30.875 C-6.22709334 35.13027677 -1.46916639 42.32973671 -0.79125977 49.07788086 C-0.3003822 60.81213501 0.00816421 70.09132763 -7 80 C-7.39445312 80.60714844 -7.78890625 81.21429688 -8.1953125 81.83984375 C-13.86140521 89.62576835 -23.76063647 94.32536536 -33 96 C-39.99643883 96.44057514 -46.9991711 96.235983 -54 96 C-54.33 98.97 -54.66 101.94 -55 105 C-51.8506793 107.09954713 -51.08664851 107.24657524 -47.4921875 107.2734375 C-46.1477356 107.29990356 -46.1477356 107.29990356 -44.77612305 107.3269043 C-43.81875244 107.34277588 -42.86138184 107.35864746 -41.875 107.375 C-27.55472056 107.84118704 -13.31722309 109.09418676 -2.49609375 119.4375 C4.38749564 126.99917432 6.38848326 135.34535588 6.265625 145.296875 C5.51052165 155.82390411 0.77492512 163.05375028 -7 170 C-19.34806291 179.1739527 -31.90542667 180.17969933 -46.8125 180.1875 C-48.03259766 180.19974609 -49.25269531 180.21199219 -50.50976562 180.22460938 C-63.21519171 180.24509099 -75.18426631 178.68341891 -85.2109375 170.109375 C-92.92143254 161.84580648 -94 153.03233869 -94 142 C-84.1 142 -74.2 142 -64 142 C-63.01 145.3 -62.02 148.6 -61 152 C-55.87866301 156.56466992 -50.91174449 157.3119207 -44.19140625 157.22265625 C-38.8531949 156.68027114 -33.49541135 155.25117597 -30 151 C-28.54649189 146.63947567 -28.64421725 142.73938233 -29.5625 138.25 C-31.64958853 134.98325274 -34.38426419 133.99562023 -38 133 C-41.89462163 132.60283324 -45.77508192 132.59043283 -49.6875 132.5625 C-59.80763185 132.30930605 -68.99650646 131.88910753 -77.5 125.75 C-82.76802466 119.95517287 -84.75941423 114.69554131 -84.453125 106.80859375 C-83.25532991 99.38432936 -78.99586148 93.42407818 -74 88 C-75.0209375 87.0409375 -75.0209375 87.0409375 -76.0625 86.0625 C-86.05180314 75.9878182 -89.96757336 67.23529537 -90 53 C-89.38297079 41.65202796 -86.08440299 31.40420901 -77.625 23.5 C-73.66254323 20.30489713 -69.73621935 17.85486918 -65 16 C-64.32195312 15.71382812 -63.64390625 15.42765625 -62.9453125 15.1328125 C-56.39014976 12.75117898 -49.86170551 12.61171573 -42.96948242 12.33642578 C-29.46375526 11.77830478 -18.05108481 8.09814177 -6.41015625 1.171875 C-4 0 -4 0 0 0 Z M-54 41 C-57.03637058 48.43055476 -57.76791802 58.60147656 -54.75 66.1875 C-52.40859689 70.10519731 -52.40859689 70.10519731 -49 73 C-45.87105329 73.62226708 -43.12689346 73.64212991 -40 73 C-35.72601666 69.90818226 -34.3418087 66.99647187 -33 62 C-32.78896831 59.30592016 -32.67478091 56.75131473 -32.6875 54.0625 C-32.67138672 53.38509766 -32.65527344 52.70769531 -32.63867188 52.00976562 C-32.63314243 46.24255558 -33.87242736 41.53672122 -37.625 37.0625 C-44.15977446 34.13904827 -49.762829 35.09364042 -54 41 Z " fill="#000000" transform="translate(1170,60)"/>
<path d="M0 0 C2.14055783 2.14055783 1.18641186 7.04948364 1.20532227 10.01782227 C1.21522186 10.96406464 1.22512146 11.91030701 1.23532104 12.88522339 C1.26703803 16.02892511 1.29173361 19.17264198 1.31640625 22.31640625 C1.33696698 24.48974512 1.35796321 26.66307991 1.37937927 28.83641052 C1.43469095 34.56896674 1.48405997 40.30155958 1.53222656 46.03417969 C1.58237535 51.87893958 1.6380959 57.723646 1.69335938 63.56835938 C1.80105213 75.04552728 1.90247225 86.52274153 2 98 C2.30507477 97.41490662 2.61014954 96.82981323 2.92446899 96.22698975 C4.33650589 93.5205107 5.75027594 90.81494046 7.1640625 88.109375 C7.64367432 87.18946777 8.12328613 86.26956055 8.61743164 85.32177734 C13.25240486 76.45724488 18.104181 67.72224408 23 59 C24.65 56.03 26.3 53.06 28 50 C38.56 50 49.12 50 60 50 C58.87604334 55.61978328 58.87604334 55.61978328 57.14453125 58.56640625 C56.77263672 59.21029297 56.40074219 59.85417969 56.01757812 60.51757812 C55.61990234 61.19240234 55.22222656 61.86722656 54.8125 62.5625 C51.53838006 68.23935993 48.47524096 73.94921841 45.62109375 79.8515625 C44.34704691 82.32597637 43.01925784 84.69729378 41.59765625 87.0859375 C41.17935547 87.79621094 40.76105469 88.50648437 40.33007812 89.23828125 C39.50314058 90.63222528 38.66253561 92.01817758 37.80664062 93.39453125 C35.9698649 96.50484654 34.98886553 98.33964056 35.05078125 102.01171875 C36.18984226 105.59765157 37.56680402 109.01855797 39.125 112.4375 C39.4355835 113.13270752 39.74616699 113.82791504 40.06616211 114.54418945 C43.29355849 121.73488388 46.64407943 128.86866878 50 136 C53.20386612 142.84025416 56.35153345 149.70306545 59.375 156.625 C59.87773438 157.77226562 60.38046875 158.91953125 60.8984375 160.1015625 C62 163 62 163 62 166 C50.45 166 38.9 166 27 166 C23.08627795 158.1725559 19.41521896 150.50836753 16.125 142.4375 C15.26469788 140.34880385 14.40401532 138.26026436 13.54296875 136.171875 C13.11935059 135.14126953 12.69573242 134.11066406 12.25927734 133.04882812 C10.01612052 127.61793584 7.72016037 122.20932419 5.42431641 116.80053711 C4.19230643 113.88707006 3.00077233 111.00231698 2 108 C1.98969254 108.71187973 1.97938507 109.42375946 1.96876526 110.1572113 C1.87095102 116.85282826 1.76845996 123.54835518 1.66066074 130.24381924 C1.6054012 133.6863574 1.55197653 137.128904 1.50268555 140.5715332 C1.44599199 144.52564526 1.38142505 148.47960944 1.31640625 152.43359375 C1.29969376 153.67523788 1.28298126 154.91688202 1.26576233 156.19615173 C1.2358445 157.90781273 1.2358445 157.90781273 1.20532227 159.65405273 C1.18977798 160.664431 1.1742337 161.67480927 1.15821838 162.71580505 C1 165 1 165 0 166 C-2.43660446 166.10082764 -4.84424701 166.13972603 -7.28125 166.1328125 C-8.00993286 166.13376923 -8.73861572 166.13472595 -9.48937988 166.13571167 C-11.0327971 166.13639335 -12.57621717 166.13453988 -14.11962891 166.13037109 C-16.489974 166.12502262 -18.86012959 166.13031642 -21.23046875 166.13671875 C-22.72656292 166.13605797 -24.22265697 166.1347768 -25.71875 166.1328125 C-26.78905457 166.13584885 -26.78905457 166.13584885 -27.88098145 166.13894653 C-32.88504809 166.11495191 -32.88504809 166.11495191 -34 165 C-34.09681822 162.93705722 -34.12186923 160.87073958 -34.12025452 158.80552673 C-34.12110894 158.15130393 -34.12196337 157.49708113 -34.12284368 156.82303339 C-34.12450028 154.61498657 -34.11897421 152.40701452 -34.11352539 150.19897461 C-34.11324353 148.62249249 -34.11340123 147.04601024 -34.1139679 145.4695282 C-34.11425592 141.17632451 -34.1083584 136.88314851 -34.10139394 132.58995128 C-34.09516121 128.10827317 -34.09455667 123.62659449 -34.09336853 119.14491272 C-34.09025497 110.65219091 -34.08204126 102.15948191 -34.07201904 93.66676575 C-34.06085866 84.00066461 -34.05534764 74.33456288 -34.05032361 64.66845691 C-34.03985866 44.77896412 -34.02225875 24.88948286 -34 5 C-30.7829419 3.30638745 -28.19507435 2.58972896 -24.5703125 2.1484375 C-23.52746094 2.01953125 -22.48460937 1.890625 -21.41015625 1.7578125 C-20.32605469 1.63148437 -19.24195313 1.50515625 -18.125 1.375 C-17.04863281 1.2409375 -15.97226563 1.106875 -14.86328125 0.96875 C-9.88118144 0.36672068 -5.02786545 -0.18413435 0 0 Z " fill="#000000" transform="translate(1443,26)"/>
<path d="M0 0 C1.28970703 -0.01836914 1.28970703 -0.01836914 2.60546875 -0.03710938 C16.29271814 -0.06826396 28.96172579 5.47350468 38.8671875 14.90234375 C39.28226563 15.32644531 39.69734375 15.75054687 40.125 16.1875 C38.53375955 19.82339887 36.2856096 22.58816524 33.75 25.625 C30.84210605 29.12128052 27.95484317 32.62758313 25.125 36.1875 C22.20108122 35.15552867 19.92340375 34.04546628 17.375 32.25 C11.20537114 28.33465861 5.48739497 26.4445493 -1.8125 27.69921875 C-7.37878644 29.0169949 -9.9819283 30.92318445 -13.0625 35.6875 C-23.299188 54.26321322 -22.23188892 79.31870273 -19.625 99.75 C-19.46124878 101.08744263 -19.46124878 101.08744263 -19.29418945 102.4519043 C-18.00422068 111.5104457 -15.29092831 121.23827751 -7.875 127.1875 C-2.95402638 129.87082335 2.11570938 130.82129539 7.65625 129.97265625 C12.93056043 128.29522524 17.46651336 125.10663851 22.125 122.1875 C23.44808731 121.50072334 24.77726615 120.82455234 26.125 120.1875 C27.87702288 122.08149715 29.62664978 123.97761738 31.375 125.875 C31.86613281 126.40544922 32.35726562 126.93589844 32.86328125 127.48242188 C34.29647145 129.03982189 35.71175695 130.61200694 37.125 132.1875 C37.92421875 133.06019531 38.7234375 133.93289062 39.546875 134.83203125 C41.125 137.1875 41.125 137.1875 41.08984375 139.2890625 C36.63750322 148.04953819 24.41566711 153.56568167 15.625 156.5625 C10.49898374 158.1875 10.49898374 158.1875 8.125 158.1875 C8.125 160.4975 8.125 162.8075 8.125 165.1875 C9.28 165.373125 10.435 165.55875 11.625 165.75 C16.9785088 167.11928111 20.61916708 169.96602688 24.125 174.1875 C27.41585254 180.05333781 27.65516622 185.73470601 26.125 192.1875 C24.04782981 198.52833532 20.78812849 203.82396095 15.12109375 207.48046875 C5.26723322 212.36332987 -5.41499166 211.75544549 -15.875 209.1875 C-18.75200607 208.05138499 -21.19901184 206.76161068 -23.875 205.1875 C-23.45030055 199.6664071 -21.43099976 194.45290375 -17.875 190.1875 C-14.5601434 189.08775984 -13.2302134 189.06909553 -9.875 190.1875 C-8.35733461 190.30382729 -6.8345654 190.36246239 -5.3125 190.375 C-4.52746094 190.38917969 -3.74242187 190.40335938 -2.93359375 190.41796875 C-0.6506455 190.37917509 -0.6506455 190.37917509 1.125 188.1875 C1.70850505 185.73040625 1.70850505 185.73040625 1.125 183.1875 C-3.01855441 179.32018256 -8.4863523 179.49093841 -13.875 179.1875 C-14.11591535 171.9600395 -13.21995828 165.28455662 -11.875 158.1875 C-12.55304687 158.04054687 -13.23109375 157.89359375 -13.9296875 157.7421875 C-27.33014205 154.51271507 -37.61903564 147.31486829 -45.24609375 135.8828125 C-53.28254873 122.58508123 -58.16750509 106.4914142 -58.2109375 90.9375 C-58.2175943 90.08051514 -58.2242511 89.22353027 -58.23110962 88.34057617 C-58.24117104 86.53550334 -58.24592867 84.73039381 -58.24560547 82.92529297 C-58.24994515 80.22167326 -58.28624096 77.51973463 -58.32421875 74.81640625 C-58.41982261 59.92384772 -56.39712485 45.75625624 -49.875 32.1875 C-49.44445312 31.28644531 -49.01390625 30.38539062 -48.5703125 29.45703125 C-41.85963728 16.30773521 -32.10448695 7.24250335 -18.296875 1.9140625 C-12.22487888 0.09246366 -6.28406392 0.0046687 0 0 Z " fill="#000000" transform="translate(908.875,36.8125)"/>
<path d="M0 0 C4.01989005 2.9762 7.71142959 6.28086913 11.33203125 9.7265625 C10.77185571 13.82163889 8.58111491 16.13540893 5.95703125 19.2265625 C3.33048974 22.34076807 0.73702991 25.43714498 -1.66796875 28.7265625 C-5.51218703 28.17450313 -7.86346853 27.14230124 -10.98046875 24.8515625 C-18.27829137 19.84183608 -24.72210416 17.61769486 -33.66796875 18.7265625 C-37.98910364 20.29788428 -40.21421343 21.88828602 -42.66796875 25.7265625 C-44.01179057 30.45810281 -44.2682908 35.2819781 -42.48046875 39.9140625 C-38.01975631 47.39847934 -28.2352266 50.48256335 -20.64208984 53.96484375 C-19.82562988 54.33996094 -19.00916992 54.71507812 -18.16796875 55.1015625 C-17.35408691 55.47539063 -16.54020508 55.84921875 -15.70166016 56.234375 C-8.71435209 59.52780957 -2.31334776 63.3966937 3.33203125 68.7265625 C3.33203125 69.3865625 3.33203125 70.0465625 3.33203125 70.7265625 C3.99203125 70.7265625 4.65203125 70.7265625 5.33203125 70.7265625 C11.53769109 78.07537021 14.9174199 87.11839502 15.33203125 96.7265625 C15.37199219 97.56832031 15.41195312 98.41007812 15.453125 99.27734375 C15.78375717 113.02775243 12.53560048 124.78579807 3.64453125 135.5390625 C-6.67766862 146.31005367 -19.24482162 150.75619568 -33.8894043 151.14648438 C-52.47459903 151.2589988 -67.91852998 146.75791023 -81.77734375 133.83984375 C-83.56172174 131.84532208 -84.53703899 130.12211721 -85.66796875 127.7265625 C-83.42742877 125.25946113 -81.17397512 122.8045218 -78.91796875 120.3515625 C-78.28375 119.65289062 -77.64953125 118.95421875 -76.99609375 118.234375 C-76.37734375 117.5640625 -75.75859375 116.89375 -75.12109375 116.203125 C-74.55551758 115.58518066 -73.98994141 114.96723633 -73.40722656 114.33056641 C-71.59975318 112.66365173 -69.90975226 111.71002691 -67.66796875 110.7265625 C-67.20648438 111.10167969 -66.745 111.47679687 -66.26953125 111.86328125 C-57.97477099 118.37122557 -49.95429822 122.85193354 -39.29296875 122.9140625 C-38.19210938 122.92824219 -37.09125 122.94242188 -35.95703125 122.95703125 C-32.52535821 122.7165696 -29.84367273 122.03037059 -26.66796875 120.7265625 C-25.28477288 119.04641091 -25.28477288 119.04641091 -24.66796875 116.7265625 C-24.29671875 115.6746875 -23.92546875 114.6228125 -23.54296875 113.5390625 C-21.86471791 106.22668383 -21.92856111 100.43170723 -25.66796875 93.7265625 C-29.39966227 89.44429125 -33.12559696 87.20216461 -38.16796875 84.8515625 C-39.59702336 84.15893108 -41.02539992 83.4648991 -42.453125 82.76953125 C-43.16227051 82.42712402 -43.87141602 82.0847168 -44.60205078 81.73193359 C-60.21492581 74.13398756 -72.75085751 66.17881513 -79.66796875 49.7265625 C-82.77921963 38.99839998 -81.8065398 25.52240465 -77.20703125 15.48828125 C-70.73539333 3.87546904 -61.3627879 -3.30497303 -48.66796875 -7.2734375 C-32.42124389 -10.94941971 -14.08032333 -9.10667678 0 0 Z " fill="#000000" transform="translate(104.66796875,45.2734375)"/>
<path d="M0 0 C0.98282959 -0.00942627 1.96565918 -0.01885254 2.97827148 -0.02856445 C13.04888113 0.01666411 22.28180736 1.8463747 30 8.6875 C30.7425 9.533125 31.485 10.37875 32.25 11.25 C32.95125 12.03375 33.6525 12.8175 34.375 13.625 C45.23967483 28.83554476 41.62133527 53.16257509 41.70629883 70.77099609 C41.72788646 74.52724329 41.76726367 78.28298836 41.80859375 82.0390625 C41.80876747 83.7671666 41.80876747 83.7671666 41.8089447 85.53018188 C41.82895287 87.1387355 41.82895287 87.1387355 41.84936523 88.77978516 C41.85443588 89.71827301 41.85950653 90.65676086 41.86473083 91.62368774 C42.36984142 95.06693792 43.7733817 97.7733817 46.25 100.25 C45.80012728 108.19775138 43.68920027 116.5911996 39.25 123.25 C31.69645627 122.83035868 24.8571334 120.70683618 19.28125 115.36328125 C17.86601064 113.71773171 16.54678717 111.99042489 15.25 110.25 C14.59 110.95125 13.93 111.6525 13.25 112.375 C5.27004943 120.28751437 -1.79705627 124.33456909 -13.125 124.6875 C-22.05968688 124.48322783 -29.54984221 122.35679777 -36.15234375 116.12890625 C-44.29285153 106.55535065 -46.72290421 94.55935326 -45.75 82.25 C-44.78359859 71.68193293 -41.17751485 63.85468686 -33.0625 56.875 C-23.45448808 49.70159744 -13.06139555 48.06634917 -1.375 48.1875 C-0.12783203 48.19426758 -0.12783203 48.19426758 1.14453125 48.20117188 C3.17971897 48.21286836 5.21486923 48.23080065 7.25 48.25 C6.89775091 40.39120137 6.11501253 33.59937998 3.25 26.25 C-6.99015836 25.94583688 -15.92903848 25.99366708 -25.75 29.25 C-27.74324078 29.62162116 -29.74067613 29.97846975 -31.75 30.25 C-33.77508903 25.32605257 -35.76158787 20.38587124 -37.5625 15.375 C-37.94341797 14.32699219 -37.94341797 14.32699219 -38.33203125 13.2578125 C-38.85766682 10.73279675 -38.92991842 9.57177496 -37.75 7.25 C-25.95050648 1.15668095 -13.03365308 0.09542075 0 0 Z M-9.5 72.75 C-13.60139145 77.67166974 -12.2101643 86.20395246 -11.75 92.25 C-10.82696581 95.47058669 -10.01845427 96.67499785 -7.75 99.25 C-4.77142005 100.54835536 -3.31885823 100.38874591 -0.1875 99.625 C3.78547553 97.38383432 5.82090774 94.53727678 7.25 90.25 C7.33178114 88.54983156 7.35749501 86.84663703 7.34765625 85.14453125 C7.34282227 83.67016602 7.34282227 83.67016602 7.33789062 82.16601562 C7.32951172 81.14185547 7.32113281 80.11769531 7.3125 79.0625 C7.30798828 78.02673828 7.30347656 76.99097656 7.29882812 75.92382812 C7.2870401 73.36582734 7.27058515 70.80794267 7.25 68.25 C5.64469177 68.2144602 4.03915683 68.18905871 2.43359375 68.16796875 C1.53954834 68.1527417 0.64550293 68.13751465 -0.27563477 68.12182617 C-4.35109445 68.3329378 -6.51702357 70.19316306 -9.5 72.75 Z " fill="#000000" transform="translate(1684.75,71.75)"/>
<path d="M0 0 C7.62515395 6.15877819 11.92658661 15.41707909 14.9296875 24.55859375 C15.4865625 26.22921875 15.4865625 26.22921875 16.0546875 27.93359375 C17.93830925 35.73716956 18.02317443 43.50377809 18.0546875 51.49609375 C18.05936035 52.3375293 18.0640332 53.17896484 18.06884766 54.04589844 C18.06675293 54.84286133 18.0646582 55.63982422 18.0625 56.4609375 C18.06137207 57.17757568 18.06024414 57.89421387 18.05908203 58.63256836 C17.9296875 60.55859375 17.9296875 60.55859375 16.9296875 63.55859375 C-2.2103125 63.55859375 -21.3503125 63.55859375 -41.0703125 63.55859375 C-39.37941801 76.6412395 -39.37941801 76.6412395 -32.9453125 86.99609375 C-27.15047229 90.14546343 -21.2349167 90.1295579 -14.9453125 88.43359375 C-10.81632798 87.03778923 -7.38657284 85.09096025 -3.859375 82.546875 C-2.0703125 81.55859375 -2.0703125 81.55859375 1.9296875 81.55859375 C3.5012207 82.96386719 3.5012207 82.96386719 4.98046875 84.91796875 C5.51349609 85.62179688 6.04652344 86.325625 6.59570312 87.05078125 C7.41071289 88.16839844 7.41071289 88.16839844 8.2421875 89.30859375 C8.80486328 90.03820312 9.36753906 90.7678125 9.94726562 91.51953125 C10.47384766 92.22851562 11.00042969 92.9375 11.54296875 93.66796875 C12.02548096 94.31733398 12.50799316 94.96669922 13.00512695 95.63574219 C13.9296875 97.55859375 13.9296875 97.55859375 13.69042969 99.69042969 C11.40929354 105.29224413 3.379698 109.3078108 -1.953125 111.71484375 C-2.65179688 111.99328125 -3.35046875 112.27171875 -4.0703125 112.55859375 C-4.81023437 112.85765625 -5.55015625 113.15671875 -6.3125 113.46484375 C-12.59516443 115.57863739 -18.69056688 115.83985548 -25.2578125 115.87109375 C-26.10118164 115.87657227 -26.94455078 115.88205078 -27.81347656 115.88769531 C-40.38312632 115.74457798 -52.03884472 111.4619556 -61.0703125 102.55859375 C-74.51751896 85.8687985 -77.90278041 64.15124666 -75.84326172 43.25488281 C-74.6806941 33.40893975 -72.62484136 24.4464315 -68.0703125 15.55859375 C-67.63976562 14.68847656 -67.20921875 13.81835938 -66.765625 12.921875 C-61.57932483 3.35505575 -53.56735638 -4.16960037 -43.0703125 -7.44140625 C-28.22997526 -11.38630602 -12.39503402 -8.84414349 0 0 Z M-37.109375 18.53515625 C-40.87387176 26.4620234 -41.23403197 33.92358875 -41.0703125 42.55859375 C-36.92449363 42.58746126 -32.77870034 42.60534702 -28.6328125 42.62109375 C-27.44880859 42.62947266 -26.26480469 42.63785156 -25.04492188 42.64648438 C-23.92021484 42.64970703 -22.79550781 42.65292969 -21.63671875 42.65625 C-20.07352905 42.66410522 -20.07352905 42.66410522 -18.47875977 42.67211914 C-16.11902503 42.83164931 -16.11902503 42.83164931 -15.0703125 41.55859375 C-15.1238399 32.68642711 -16.02714871 23.67110892 -20.6328125 15.93359375 C-26.18509898 12.80153471 -33.32619698 12.82014265 -37.109375 18.53515625 Z " fill="#000000" transform="translate(242.0703125,80.44140625)"/>
<path d="M0 0 C0.91201172 -0.01224609 1.82402344 -0.02449219 2.76367188 -0.03710938 C11.40096581 -0.0556842 18.22218803 1.67085586 25.9375 5.5625 C27.11828125 6.14773437 28.2990625 6.73296875 29.515625 7.3359375 C32.50407468 9.0804266 34.65421867 10.38911796 36.6875 13.1875 C36.82958582 18.09363964 33.43408169 21.74811785 30.625 25.5 C30.15255859 26.14517578 29.68011719 26.79035156 29.19335938 27.45507812 C28.03240296 29.03820051 26.86097664 30.61363569 25.6875 32.1875 C21.99567944 31.31838391 19.02710717 29.89916631 15.6875 28.125 C11.68543552 26.24903227 8.02587691 26.00294055 3.625 25.9375 C2.58214844 25.91171875 1.53929687 25.8859375 0.46484375 25.859375 C-2.31793141 25.95072267 -2.31793141 25.95072267 -4.12890625 27.5625 C-5.80860057 29.86861498 -6.18213658 31.31950484 -6.3125 34.1875 C-4.87678878 38.95145086 -4.21299259 40.59701306 0.0234375 43.375 C1.35994439 44.00064864 2.70708238 44.60395052 4.0625 45.1875 C5.50977584 45.86316872 6.95638188 46.54027387 8.40234375 47.21875 C9.12405762 47.54875 9.84577148 47.87875 10.58935547 48.21875 C23.32493982 54.09899188 34.38304132 60.38722187 39.76171875 73.8828125 C42.2283767 82.68784468 41.96969979 93.77352657 37.94140625 102.0546875 C31.75592354 112.57578894 23.5308321 119.6853382 11.6875 123.1875 C6.55610564 124.30237849 1.53816406 124.37089177 -3.6875 124.375 C-4.90566406 124.39336914 -4.90566406 124.39336914 -6.1484375 124.41210938 C-21.04837001 124.44792652 -34.45206254 118.12364491 -45.3125 108.1875 C-44.72414423 104.74379054 -43.55123007 103.02256926 -41.15234375 100.515625 C-40.52392578 99.85175781 -39.89550781 99.18789062 -39.24804688 98.50390625 C-38.25901367 97.48103516 -38.25901367 97.48103516 -37.25 96.4375 C-36.58677734 95.74011719 -35.92355469 95.04273438 -35.24023438 94.32421875 C-33.60406515 92.60565251 -31.96141745 90.89382351 -30.3125 89.1875 C-27.12111311 90.37946378 -24.41627431 91.68140118 -21.625 93.625 C-15.62108798 97.41694443 -9.5354457 99.92689922 -2.375 98.625 C0.32477604 97.99292902 1.4678569 97.41461395 3.41015625 95.40625 C4.89196414 92.83234516 5.15105605 91.20651578 5.1875 88.25 C5.2184375 87.41597656 5.249375 86.58195312 5.28125 85.72265625 C4.40752989 81.99210131 2.62075231 80.60723864 -0.3125 78.1875 C-2.7779325 76.6995594 -5.32974319 75.46728365 -7.9375 74.25 C-9.36898301 73.55309595 -10.79997128 72.85517479 -12.23046875 72.15625 C-13.59077236 71.49922619 -14.95142324 70.84292066 -16.3125 70.1875 C-26.69073267 65.1834813 -35.29826081 59.30702462 -39.65625 48.23046875 C-42.79989434 38.44400453 -41.86648907 29.59914749 -37.86328125 20.171875 C-32.99040855 10.79435677 -25.07855459 4.80455726 -15.3125 1.1875 C-10.18707611 -0.01924537 -5.2403046 0.00365688 0 0 Z " fill="#000000" transform="translate(472.3125,71.8125)"/>
<path d="M0 0 C0.89525391 -0.020625 1.79050781 -0.04125 2.71289062 -0.0625 C16.37190665 -0.14139684 27.04389915 5.00100557 36.8125 14.25 C33.3984662 20.94489607 29.94980341 26.74574635 24.8125 32.25 C21.85889243 31.61566817 19.42224276 30.65048175 16.75 29.25 C12.30235893 26.92800697 8.91868662 26.11253106 3.875 26.125 C2.83472656 26.12242188 1.79445313 26.11984375 0.72265625 26.1171875 C-1.76415971 26.23067977 -3.81842407 26.53071429 -6.1875 27.25 C-6.32359913 28.97694675 -6.41999228 30.70704722 -6.5 32.4375 C-6.58701172 33.88189453 -6.58701172 33.88189453 -6.67578125 35.35546875 C-5.99338946 39.40068729 -4.35211745 40.71144508 -1.1875 43.25 C1.87948091 44.83438113 1.87948091 44.83438113 5.25 46.0625 C15.42047296 50.13939236 27.92975179 55.38029843 34.4375 64.5 C34.82164062 65.02078125 35.20578125 65.5415625 35.6015625 66.078125 C39.23849962 72.60114771 40.3427182 78.26391646 40.25 85.625 C40.24315186 86.46063477 40.23630371 87.29626953 40.22924805 88.15722656 C40.06367812 94.52453731 39.09977274 99.70611759 35.8125 105.25 C35.30396484 106.19166016 35.30396484 106.19166016 34.78515625 107.15234375 C29.21628648 116.20918889 18.56291991 121.15266415 8.6328125 123.83984375 C4.42262446 124.45212871 0.24894779 124.43437347 -4 124.4375 C-4.86431641 124.44974609 -5.72863281 124.46199219 -6.61914062 124.47460938 C-20.15273083 124.50525147 -33.30663413 119.62738226 -43.1875 110.25 C-44.2193421 108.94115331 -45.22952747 107.61384251 -46.1875 106.25 C-45.29998047 105.27160156 -45.29998047 105.27160156 -44.39453125 104.2734375 C-39.2295768 98.5865831 -39.2295768 98.5865831 -34.3125 92.6875 C-32.1875 90.25 -32.1875 90.25 -29.1875 89.25 C-27.171875 90.359375 -27.171875 90.359375 -24.9375 92 C-17.43057112 97.22695694 -10.49890824 100.12072266 -1.375 98.625 C1.87608179 97.49020368 1.87608179 97.49020368 3.75 95.0625 C5.40679472 90.67686692 5.4904938 87.10318305 3.875 82.6875 C-0.95388173 76.98063978 -7.31048893 74.10362872 -14.125 71.3125 C-24.7242292 66.92188079 -33.18640637 61.1484373 -39 51.125 C-42.51852055 42.60647656 -42.49470329 32.13245568 -39.625 23.4375 C-35.75363217 14.1297433 -29.51118882 6.94622267 -20.1875 3.0625 C-13.39845714 0.39992225 -7.22591754 0.04073808 0 0 Z " fill="#000000" transform="translate(348.1875,71.75)"/>
<path d="M0 0 C25.41 0 50.82 0 77 0 C77 26.96749569 77 26.96749569 70 35 C68.83981169 36.76796841 67.70838899 38.55512553 66.60546875 40.359375 C56.20477587 56.77092621 56.20477587 56.77092621 50.8125 64.75 C45.24861472 72.98519893 40.12804349 81.48900767 35 90 C35.66 89.67 36.32 89.34 37 89 C39.80909841 88.88874302 42.59264945 88.83588437 45.40234375 88.83203125 C46.65260094 88.82703865 46.65260094 88.82703865 47.92811584 88.82194519 C49.69255012 88.81687839 51.456994 88.81453679 53.22143555 88.81469727 C55.92317469 88.81251159 58.62450506 88.79435574 61.32617188 88.77539062 C63.0390611 88.77245652 64.75195227 88.77047184 66.46484375 88.76953125 C67.2742894 88.76234573 68.08373505 88.75516022 68.91770935 88.74775696 C72.80245573 88.76360608 74.69270098 88.79513399 78 91 C77.68978487 94.04191531 77.37690547 97.08351734 77.0625 100.125 C76.97548828 100.9809375 76.88847656 101.836875 76.79882812 102.71875 C76.71181641 103.55664062 76.62480469 104.39453125 76.53515625 105.2578125 C76.456604 106.0223877 76.37805176 106.78696289 76.29711914 107.57470703 C75.95104572 110.39959888 75.47424915 113.19406719 75 116 C64.84733849 116.02312392 54.6946832 116.04091534 44.54200077 116.05181217 C39.82820267 116.05704089 35.11442253 116.06413834 30.40063477 116.07543945 C25.85544596 116.08626873 21.31027448 116.09227692 16.76507378 116.09487724 C15.02705042 116.09673142 13.28902806 116.10035189 11.55101204 116.10573006 C9.12521405 116.11294103 6.69948854 116.11399092 4.27368164 116.11352539 C3.54791931 116.11712067 2.82215698 116.12071594 2.07440186 116.12442017 C-2.88594784 116.11405216 -2.88594784 116.11405216 -4 115 C-5.87347401 102.28577978 -5.29006642 91.47655241 2.38818359 80.99731445 C3.41623987 79.64606683 4.45477982 78.30272795 5.50390625 76.96777344 C7.87045995 73.85510653 9.85447475 70.53061145 11.875 67.1875 C16.19959101 60.19893295 20.6715802 53.30926907 25.18310547 46.44018555 C29.58986205 39.70736969 33.80659695 32.86711683 38 26 C36.91992676 26.00523682 35.83985352 26.01047363 34.72705078 26.01586914 C30.72771022 26.03394108 26.72837328 26.04544007 22.72900391 26.05493164 C20.99657586 26.05996682 19.26415208 26.06679532 17.53173828 26.07543945 C15.04458567 26.08754065 12.55748913 26.09323638 10.0703125 26.09765625 C9.29317902 26.10281754 8.51604553 26.10797882 7.71536255 26.11329651 C2.22774341 26.11387171 2.22774341 26.11387171 0 25 C0 16.75 0 8.5 0 0 Z " fill="#000000" transform="translate(649,76)"/>
<path d="M0 0 C1.73172858 1.73172858 1.14345412 4.07502227 1.15821838 6.43519592 C1.1680072 7.61455215 1.17779602 8.79390839 1.18788147 10.00900269 C1.19651466 11.96726486 1.19651466 11.96726486 1.20532227 13.96508789 C1.21489557 15.34453122 1.22490532 16.72397159 1.23532104 18.10340881 C1.26243554 21.85940923 1.28340954 25.6154223 1.30332303 29.37146688 C1.32514236 33.2926257 1.35255081 37.21374526 1.37937927 41.13487244 C1.42936114 48.56508762 1.47427951 55.99532454 1.51740164 63.42558235 C1.56672716 71.88254427 1.62166261 80.3394668 1.67708123 88.79639065 C1.79098558 106.19755738 1.89780611 123.59876064 2 141 C4.31 141.33 6.62 141.66 9 142 C10.6990912 146.88036833 12.29035783 151.79259781 13.75 156.75 C14.14445312 158.07257813 14.14445312 158.07257813 14.546875 159.421875 C15.04544234 162.25855122 14.7357416 164.23599778 14 167 C4.43479316 171.17390844 -7.57277004 171.93364726 -17.5625 168.5625 C-24.71116255 165.11015955 -29.68658391 158.96047749 -32.3686924 151.56231689 C-33.72063025 146.07514523 -33.38736535 140.3982607 -33.34057617 134.78125 C-33.33972879 133.35151691 -33.34020721 131.92178251 -33.34190369 130.49205017 C-33.34276073 126.63096091 -33.32518246 122.77015402 -33.30418181 118.9091301 C-33.28536624 114.86659953 -33.28366074 110.82406174 -33.28010559 106.78149414 C-33.27079941 99.13539113 -33.24620507 91.48941754 -33.21605712 83.84337139 C-33.18246856 75.13478461 -33.16601592 66.42619149 -33.15097082 57.717556 C-33.11965415 39.81163076 -33.06692157 21.9058258 -33 4 C-30.44961587 3.51215778 -27.89879216 3.02685049 -25.34765625 2.54296875 C-24.63113892 2.40564331 -23.91462158 2.26831787 -23.1763916 2.12683105 C-15.49067492 0.67325202 -7.83551219 -0.33342605 0 0 Z " fill="#000000" transform="translate(1584,26)"/>
<path d="M0 0 C1.73684227 1.73684227 1.14352643 4.10775473 1.15821838 6.47315979 C1.1680072 7.66093018 1.17779602 8.84870056 1.18788147 10.07246399 C1.19651466 12.04475227 1.19651466 12.04475227 1.20532227 14.05688477 C1.21489555 15.44618017 1.2249053 16.83547262 1.23532104 18.22476196 C1.26243577 22.00762116 1.28340964 25.79049292 1.30332303 29.57339597 C1.32514222 33.52258185 1.35255074 37.47172872 1.37937927 41.42088318 C1.42936133 48.90422246 1.47427963 56.38758333 1.51740164 63.87096494 C1.566727 72.38838503 1.6216625 80.905766 1.67708123 89.42314827 C1.79098588 106.94872938 1.89780635 124.47434677 2 142 C4.31 142 6.62 142 9 142 C16.04451858 159.44356983 16.04451858 159.44356983 14 167 C4.54152848 171.05363065 -6.84888195 171.95081322 -16.625 168.3125 C-24.84942344 164.33116269 -28.49846111 159.23070893 -32 151 C-33.06606844 147.80179467 -33.12317988 145.53368205 -33.12025452 142.17243958 C-33.12162918 140.9566774 -33.12300385 139.74091522 -33.12442017 138.48831177 C-33.12088104 137.13909888 -33.11724624 135.78988623 -33.11352539 134.44067383 C-33.11324335 133.02153017 -33.11340158 131.60238637 -33.1139679 130.1832428 C-33.11425522 126.32815875 -33.10836894 122.47310571 -33.10139394 118.61802888 C-33.09514963 114.59013669 -33.09455575 110.56224382 -33.09336853 106.53434753 C-33.0902584 98.90584122 -33.08204928 91.2773492 -33.07201904 83.64884919 C-33.06084805 74.96454537 -33.05534496 66.28024087 -33.05032361 57.59593165 C-33.03986642 39.73061299 -33.02227311 21.86530764 -33 4 C-30.46145208 3.5114984 -27.92234336 3.02631138 -25.3828125 2.54296875 C-24.6710083 2.40564331 -23.9592041 2.26831787 -23.22583008 2.12683105 C-15.59059895 0.67907208 -7.78944425 -0.40997075 0 0 Z " fill="#000000" transform="translate(1256,26)"/>
<path d="M0 0 C0.60054199 0.32162109 1.20108398 0.64324219 1.81982422 0.97460938 C1.20202741 4.99658353 0.57429981 9.01694787 -0.05517578 13.03710938 C-0.22919922 14.17083984 -0.40322266 15.30457031 -0.58251953 16.47265625 C-1.46950008 22.10662532 -2.42990365 27.54245847 -4.18017578 32.97460938 C-4.96521484 32.92820313 -5.75025391 32.88179687 -6.55908203 32.83398438 C-14.5486947 32.44695411 -14.5486947 32.44695411 -21.71923828 35.45898438 C-30.67555077 44.75055989 -30.47134352 58.78875109 -30.34033203 70.78710938 C-30.33238654 72.75863607 -30.32444594 74.73016279 -30.31680202 76.70169067 C-30.3037677 79.43279543 -30.28154178 82.1637942 -30.25921631 84.89483643 C-30.2209312 89.70872999 -30.19284896 94.52267328 -30.17149353 99.33666992 C-30.159218 101.89415663 -30.14159666 104.45162424 -30.11817932 107.0090332 C-30.11164841 108.15782959 -30.10511749 109.30662598 -30.09838867 110.49023438 C-30.09013565 111.50375977 -30.08188263 112.51728516 -30.07337952 113.56152344 C-30.18017578 115.97460938 -30.18017578 115.97460938 -31.18017578 117.97460938 C-42.40017578 117.97460938 -53.62017578 117.97460938 -65.18017578 117.97460938 C-65.18017578 79.69460937 -65.18017578 41.41460937 -65.18017578 1.97460938 C-55.28017578 1.97460938 -45.38017578 1.97460938 -35.18017578 1.97460938 C-34.19017578 6.26460938 -33.20017578 10.55460937 -32.18017578 14.97460938 C-31.23142578 13.44835937 -30.28267578 11.92210938 -29.30517578 10.34960938 C-22.69846798 1.04736479 -11.46588661 -5.39269023 0 0 Z " fill="#000000" transform="translate(1848.18017578125,74.025390625)"/>
<path d="M0 0 C1.43352212 0.00015908 2.86704998 0.00585132 4.30053711 0.01586914 C5.43041298 0.01799156 5.43041298 0.01799156 6.58311462 0.02015686 C8.99807646 0.02577163 11.41294687 0.03832656 13.82788086 0.05102539 C15.46134307 0.05603849 17.09480672 0.06060173 18.72827148 0.06469727 C22.74067671 0.07574585 26.75301326 0.09302033 30.76538086 0.11352539 C30.78871063 15.09038845 30.80636042 30.06725011 30.81719303 45.04412746 C30.82235582 51.9976862 30.8293982 58.95123366 30.84082031 65.90478516 C30.8518278 72.60909748 30.85765707 79.31339564 30.8602581 86.01771736 C30.86211288 88.58190152 30.8657345 91.14608501 30.87111092 93.71026421 C30.87831745 97.28797697 30.87937196 100.86564058 30.87890625 104.44335938 C30.88250153 105.51509903 30.8860968 106.58683868 30.88980103 107.6910553 C30.88842636 108.66005768 30.8870517 109.62906006 30.88563538 110.62742615 C30.88655717 111.4745539 30.88747896 112.32168165 30.88842869 113.19447994 C30.76538086 115.11352539 30.76538086 115.11352539 29.76538086 116.11352539 C27.3287764 116.21435303 24.92113385 116.25325142 22.48413086 116.24633789 C21.755448 116.24729462 21.02676514 116.24825134 20.27600098 116.24923706 C18.73258376 116.24991875 17.18916369 116.24806527 15.64575195 116.24389648 C13.27540686 116.23854801 10.90525127 116.24384181 8.53491211 116.25024414 C7.03881794 116.24958336 5.54272389 116.24830219 4.04663086 116.24633789 C2.97632629 116.24937424 2.97632629 116.24937424 1.88439941 116.25247192 C-3.11966723 116.2284773 -3.11966723 116.2284773 -4.23461914 115.11352539 C-4.33246688 113.63568738 -4.36093679 112.15319271 -4.36160278 110.67211914 C-4.36442261 109.71297607 -4.36724243 108.75383301 -4.37014771 107.765625 C-4.36812347 106.70480713 -4.36609924 105.64398926 -4.36401367 104.55102539 C-4.36576599 103.44057861 -4.36751831 102.33013184 -4.36932373 101.18603516 C-4.37374487 97.49518293 -4.37080333 93.80437815 -4.36743164 90.11352539 C-4.3681046 87.56144196 -4.36907457 85.0093586 -4.37033081 82.45727539 C-4.37180814 77.10049777 -4.3697467 71.74373734 -4.36499023 66.38696289 C-4.35954765 60.18568824 -4.36131032 53.98444646 -4.36681664 47.78317261 C-4.37189351 41.82818324 -4.37136621 35.87320412 -4.36843491 29.91821289 C-4.36776538 27.37915034 -4.36859496 24.84008697 -4.37091446 22.30102539 C-4.37343944 18.75933575 -4.36960256 15.21771022 -4.36401367 11.67602539 C-4.3660379 10.61520752 -4.36806213 9.55438965 -4.37014771 8.46142578 C-4.36732788 7.50228271 -4.36450806 6.54313965 -4.36160278 5.55493164 C-4.36122576 4.71647705 -4.36084873 3.87802246 -4.36046028 3.01416016 C-4.1412762 -0.29627463 -3.40001866 0.11933042 0 0 Z " fill="#000000" transform="translate(999.234619140625,75.886474609375)"/>
<path d="M0 0 C11.22 0 22.44 0 34 0 C34 38.28 34 76.56 34 116 C22.78 116 11.56 116 0 116 C0 77.72 0 39.44 0 0 Z " fill="#000000" transform="translate(1319,76)"/>
<path d="M0 0 C11.22 0 22.44 0 34 0 C34 38.28 34 76.56 34 116 C22.78 116 11.56 116 0 116 C0 77.72 0 39.44 0 0 Z " fill="#000000" transform="translate(563,76)"/>
<path d="M0 0 C0.26554687 0.74765625 0.53109375 1.4953125 0.8046875 2.265625 C1.15789062 3.25046875 1.51109375 4.2353125 1.875 5.25 C2.22304687 6.22453125 2.57109375 7.1990625 2.9296875 8.203125 C3.28289062 9.12609375 3.63609375 10.0490625 4 11 C4.26425781 11.76054687 4.52851562 12.52109375 4.80078125 13.3046875 C5.90920853 15.24939919 5.90920853 15.24939919 8.42578125 15.6796875 C9.85470703 15.77636719 9.85470703 15.77636719 11.3125 15.875 C12.25738281 15.95492188 13.20226563 16.03484375 14.17578125 16.1171875 C17.29137715 15.98790966 19.26401087 15.4898023 22 14 C23.36638411 12.30051398 23.36638411 12.30051398 24.1875 10.25 C24.66509766 9.19039062 24.66509766 9.19039062 25.15234375 8.109375 C26.22494894 5.44021924 27.17342789 2.75524037 28 0 C34.94170563 0.33055741 40.79081025 0.75428718 47 4 C45.45745023 16.94929937 43.02370974 27.05351954 33 36 C28.27858458 39.25552834 23.73606294 40.59746927 18 41 C17.31164063 41.0515625 16.62328125 41.103125 15.9140625 41.15625 C7.50522953 41.51030613 -0.41444724 39.36033364 -7 34 C-15.14363128 25.46857675 -18.13082892 15.57369907 -19 4 C-12.6449088 1.01699801 -7.05398255 -0.06018756 0 0 Z " fill="#000000" transform="translate(1113,14)"/>
<path d="M0 0 C5.13672864 2.9411914 7.71684145 6.78207437 9.625 12.3125 C10.53599375 19.39918392 9.88770659 25.45819842 5.625 31.3125 C1.14602509 35.6766294 -3.45261456 37.59660919 -9.6875 37.75 C-15.42271439 37.64178841 -19.07060996 36.04838569 -23.375 32.3125 C-28.65327231 26.49286642 -28.96945718 21.79974218 -28.77734375 14.09765625 C-28.20336679 8.69781479 -26.513912 5.75274951 -22.375 2.3125 C-15.66006997 -2.69500124 -7.63483526 -3.47683018 0 0 Z " fill="#000000" transform="translate(589.375,16.6875)"/>
<path d="M0 0 C5.44828485 2.67461256 8.80193714 6.37567184 11.3125 11.875 C12.60974101 17.77155004 11.27338927 22.41328827 8.17578125 27.42578125 C5.65921195 30.79514147 2.94732841 32.68422386 -1 34 C-7.55694743 34.77514301 -11.65584898 33.87712917 -17 30 C-21.56666075 25.19298868 -22.42904874 20.85094779 -22.34375 14.37890625 C-21.55258533 8.9036871 -18.2681571 5.20776866 -14.375 1.5 C-9.5313983 -0.65271187 -5.21778148 -0.76983661 0 0 Z " fill="#FF0000" transform="translate(1893,153)"/>
</svg>
